<?xml version="1.0" encoding="utf-8"?>
<!-- Generator: Adobe Illustrator 25.0.1, SVG Export Plug-In . SVG Version: 6.00 Build 0)  -->
<svg version="1.1" id="base" xmlns="http://www.w3.org/2000/svg" xmlns:xlink="http://www.w3.org/1999/xlink" x="0px" y="0px"
	 viewBox="0 0 72 87.77" style="enable-background:new 0 0 72 87.77;" xml:space="preserve">
<g>
	<path d="M48.96,26.21c-0.22,0.94-0.43,1.87-0.72,2.74C60.92,31.17,65.6,39.09,65.6,47.59c0,11.45-9.79,18.36-27.79,20.38
		c-0.29-1.01-1.3-3.17-1.94-4.32c14.91-1.44,24.48-6.63,24.48-15.91v-0.5c-0.36-8.35-5.98-12.46-13.68-13.75
		c-3.1,8.14-8.35,15.7-14.33,21.17c0.5,1.51,1.15,2.81,1.87,3.89l-4.25,2.66c-0.65-1.01-1.22-2.23-1.73-3.6
		C22.47,61.85,17.86,63,14.62,63c-5.76,0-8.71-4.25-8.71-9.58c0-9.94,8.21-17.86,18.65-22.03c-0.14-3.74-0.14-7.85-0.07-12.1
		c-12.17,0-13.46,0-15.84-0.14L8.5,14.4c3.67,0.22,9.94,0.22,16.13,0.22c0.07-3.31,0.22-7.34,0.36-10.73l7.2,0.5
		c-0.07,0.72-0.79,1.3-1.87,1.44c-0.22,2.66-0.36,5.98-0.58,8.64c7.85-0.22,21.6-1.15,28.87-3.02l0.65,4.9
		c-7.63,1.87-21.53,2.59-29.74,2.81c-0.14,3.74-0.22,7.34-0.14,10.73c5.04-1.58,9.58-1.66,10.8-1.66c1.08,0,2.02,0,2.95,0.07
		c0.29-1.15,0.5-2.23,0.72-3.38L48.96,26.21z M26.86,53.06c-1.15-4.46-1.8-10.15-2.09-16.85c-7.85,3.46-13.97,9.43-13.97,16.42
		c0,4.25,2.38,5.69,4.97,5.54C19.15,58.1,23.04,56.16,26.86,53.06z M41.62,32.83c-1.15-0.07-6.77-0.22-12.17,1.73
		c0.14,5.83,0.65,10.8,1.66,14.83C35.43,45,39.32,39.17,41.62,32.83z"/>
</g>
</svg>
