<?xml version="1.0" encoding="utf-8"?>
<!-- Generator: Adobe Illustrator 16.0.3, SVG Export Plug-In . SVG Version: 6.00 Build 0)  -->
<!DOCTYPE svg PUBLIC "-//W3C//DTD SVG 1.1//EN" "http://www.w3.org/Graphics/SVG/1.1/DTD/svg11.dtd">
<svg version="1.1" id="レイヤー_1" xmlns="http://www.w3.org/2000/svg" xmlns:xlink="http://www.w3.org/1999/xlink" x="0px"
	 y="0px" width="250px" height="250px" viewBox="0 0 250 250" enable-background="new 0 0 250 250" xml:space="preserve">
<path fill-rule="evenodd" clip-rule="evenodd" fill="none" d="M92.997,132.11c-6.912,0-12.516,5.604-12.516,12.518
	c0,6.911,5.604,12.514,12.516,12.514s12.516-5.603,12.516-12.514C105.513,137.715,99.909,132.11,92.997,132.11z M89.776,151.736
	l-0.762-2.337l5.58-4.783l-5.58-4.764l0.762-2.338l8.121,7.102L89.776,151.736z"/>
<polygon fill-rule="evenodd" clip-rule="evenodd" fill="none" points="89.015,139.853 94.595,144.616 89.015,149.399 
	89.776,151.736 97.897,144.616 89.776,137.515 "/>
<path fill="#040000" d="M101.846,173.396l7.686,23.56l81.834-71.765l-81.834-71.558l-7.686,23.546l56.235,48.012L101.846,173.396z"
	/>
<polygon fill-rule="evenodd" clip-rule="evenodd" fill="none" points="141.068,139.853 146.648,144.616 141.068,149.399 
	141.83,151.736 149.951,144.616 141.83,137.515 "/>
</svg>
