<?xml version="1.0" encoding="utf-8"?>
<!-- Generator: Adobe Illustrator 16.2.0, SVG Export Plug-In . SVG Version: 6.00 Build 0)  -->
<!DOCTYPE svg PUBLIC "-//W3C//DTD SVG 1.1//EN" "http://www.w3.org/Graphics/SVG/1.1/DTD/svg11.dtd">
<svg version="1.1" id="レイヤー_1" xmlns="http://www.w3.org/2000/svg" xmlns:xlink="http://www.w3.org/1999/xlink" x="0px"
	 y="0px" width="100px" height="100px" viewBox="0 0 100 100" enable-background="new 0 0 100 100" xml:space="preserve">
<g>
	<g>
		<path d="M33.171,50c0,9.293,7.534,16.831,16.828,16.831c9.295,0,16.83-7.537,16.83-16.831c0-9.294-7.535-16.828-16.83-16.828
			C40.705,33.171,33.171,40.706,33.171,50z M49.999,24.553c12.357,0,22.652,8.809,24.961,20.488h24.793
			C97.261,19.755,75.938,0,49.999,0C24.059,0,2.736,19.755,0.246,45.041h24.793C27.348,33.361,37.643,24.553,49.999,24.553z
			 M49.999,75.447c-12.356,0-22.651-8.807-24.96-20.488H0.246C2.736,80.244,24.059,100,49.999,100
			c25.939,0,47.262-19.756,49.754-45.041H74.96C72.651,66.641,62.356,75.447,49.999,75.447z"/>
	</g>
</g>
</svg>
