<?xml version="1.0" encoding="utf-8"?>
<!-- Generator: Adobe Illustrator 16.0.3, SVG Export Plug-In . SVG Version: 6.00 Build 0)  -->
<!DOCTYPE svg PUBLIC "-//W3C//DTD SVG 1.1//EN" "http://www.w3.org/Graphics/SVG/1.1/DTD/svg11.dtd">
<svg version="1.1" id="レイヤー_1" xmlns="http://www.w3.org/2000/svg" xmlns:xlink="http://www.w3.org/1999/xlink" x="0px"
	 y="0px" width="250px" height="250px" viewBox="0 0 250 250" enable-background="new 0 0 250 250" xml:space="preserve">
<path fill="none" d="M166.334,144.628c0,6.911,5.604,12.515,12.517,12.515s12.517-5.604,12.517-12.515
	c0-6.914-5.604-12.519-12.517-12.519S166.334,137.715,166.334,144.628z M173.951,144.616l8.121-7.103l0.762,2.338l-5.58,4.765
	l5.58,4.782l-0.762,2.338L173.951,144.616z"/>
<polygon fill="none" points="182.072,137.516 173.951,144.616 182.072,151.736 182.832,149.398 177.252,144.616 182.832,139.854 "/>
<path fill="#040000" d="M113.767,125.191l56.235-48.012l-7.687-23.546l-81.834,71.558l81.834,71.765l7.687-23.56L113.767,125.191z"
	/>
<polygon fill="none" points="130.018,137.516 121.896,144.616 130.018,151.736 130.779,149.398 125.199,144.616 130.779,139.854 "/>
</svg>
