<?xml version="1.0" encoding="utf-8"?>
<!-- Generator: Adobe Illustrator 16.0.3, SVG Export Plug-In . SVG Version: 6.00 Build 0)  -->
<!DOCTYPE svg PUBLIC "-//W3C//DTD SVG 1.1//EN" "http://www.w3.org/Graphics/SVG/1.1/DTD/svg11.dtd">
<svg version="1.1" id="レイヤー_1" xmlns="http://www.w3.org/2000/svg" xmlns:xlink="http://www.w3.org/1999/xlink" x="0px"
	 y="0px" width="250px" height="250px" viewBox="0 0 250 250" enable-background="new 0 0 250 250" xml:space="preserve">
<path fill-rule="evenodd" clip-rule="evenodd" fill="none" d="M92.997,132.11c-6.912,0-12.516,5.604-12.516,12.518
	c0,6.911,5.604,12.514,12.516,12.514s12.516-5.603,12.516-12.514C105.513,137.715,99.909,132.11,92.997,132.11z M89.776,151.736
	l-0.762-2.337l5.58-4.783l-5.58-4.764l0.762-2.338l8.121,7.102L89.776,151.736z"/>
<polygon fill-rule="evenodd" clip-rule="evenodd" fill="none" points="89.015,139.853 94.595,144.616 89.015,149.399 
	89.776,151.736 97.897,144.616 89.776,137.515 "/>
<path fill-rule="evenodd" clip-rule="evenodd" fill="#040000" d="M124.692-0.355C55.607-0.355-0.399,55.661-0.399,124.756
	c0,69.075,56.006,125.072,125.091,125.072c69.086,0,125.093-55.997,125.093-125.072C249.785,55.661,193.778-0.355,124.692-0.355z
	 M109.887,195.804l-7.613-23.356l55.771-47.809l-55.771-47.612l7.613-23.367l81.169,70.979L109.887,195.804z"/>
<polygon fill-rule="evenodd" clip-rule="evenodd" fill="none" points="141.068,139.853 146.648,144.616 141.068,149.399 
	141.83,151.736 149.951,144.616 141.83,137.515 "/>
</svg>
