<?xml version="1.0" encoding="utf-8"?>
<!-- Generator: Adobe Illustrator 16.0.3, SVG Export Plug-In . SVG Version: 6.00 Build 0)  -->
<!DOCTYPE svg PUBLIC "-//W3C//DTD SVG 1.1//EN" "http://www.w3.org/Graphics/SVG/1.1/DTD/svg11.dtd">
<svg version="1.1" id="レイヤー_1" xmlns="http://www.w3.org/2000/svg" xmlns:xlink="http://www.w3.org/1999/xlink" x="0px"
	 y="0px" width="250px" height="250px" viewBox="0 0 250 250" enable-background="new 0 0 250 250" xml:space="preserve">
<path fill="none" d="M143.873,144.628c0,6.911,5.604,12.515,12.517,12.515s12.517-5.604,12.517-12.515
	c0-6.914-5.604-12.519-12.517-12.519S143.873,137.715,143.873,144.628z M151.49,144.616l8.121-7.103l0.762,2.338l-5.58,4.765
	l5.58,4.782l-0.762,2.338L151.49,144.616z"/>
<polygon fill="none" points="159.611,137.516 151.49,144.616 159.611,151.736 160.371,149.398 154.791,144.616 160.371,139.854 "/>
<path fill="#040000" d="M-0.398,124.756c0,69.075,56.008,125.072,125.093,125.072c69.084,0,125.09-55.997,125.09-125.072
	c0-69.095-56.006-125.111-125.09-125.111C55.609-0.355-0.398,55.661-0.398,124.756z M58.33,124.639L139.5,53.66l7.613,23.367
	l-55.771,47.612l55.771,47.809l-7.613,23.356L58.33,124.639z"/>
<polygon fill="none" points="107.557,137.516 99.436,144.616 107.557,151.736 108.318,149.398 102.738,144.616 108.318,139.854 "/>
</svg>
