<svg id="グループ_1" data-name="グループ 1" xmlns="http://www.w3.org/2000/svg" width="80.438" height="34.531" viewBox="0 0 80.438 34.531">
  <path id="g" d="M68.313,0.875A7.716,7.716,0,0,0,62.5,4.813a18.976,18.976,0,0,0-2.437,10.125q0.563,10.5,8.063,11.438a6.883,6.883,0,0,0,6.938-2.812v1.5a6.113,6.113,0,0,1-1.5,4.5,4.352,4.352,0,0,1-3.187,1.313q-3.564,0-4.125-3.937H60.813q0.747,4.5,3.375,6.563a10.5,10.5,0,0,0,6.563,1.875,9.635,9.635,0,0,0,7.125-2.625q2.623-2.628,2.625-7.5v-24H75.063V3.5A7.335,7.335,0,0,0,68.313.875h0Zm-1.5,18.75A13.212,13.212,0,0,1,65.5,13.063q0.936-8.06,5.438-7.5a4,4,0,0,1,3,2.25,13.016,13.016,0,0,1,1.125,5.813,10.667,10.667,0,0,1-1.5,6,4.3,4.3,0,0,1-3.75,1.875,3.387,3.387,0,0,1-3-1.875h0Z" transform="translate(-0.063 -0.844)"/>
  <path id="v" d="M35.5,30.688h6.938L49.563,1.625h-6l-4.5,19.5-4.687-19.5H28.563Z" transform="translate(-0.063 -0.844)"/>
  <path id="s" d="M2.688,28.063a8.988,8.988,0,0,0,7.125,3,9.387,9.387,0,0,0,6.938-2.625A8.361,8.361,0,0,0,19,22.25a7.632,7.632,0,0,0-2.25-5.625A11.312,11.312,0,0,0,12.25,14L8.125,12.688a3.277,3.277,0,0,1-1.5-.937,2.779,2.779,0,0,1-.75-2.062A3.489,3.489,0,0,1,7.938,6.5a4.02,4.02,0,0,1,2.438,0Q12.625,7.251,13,11h5.25a10.81,10.81,0,0,0-2.437-6.75,8.572,8.572,0,0,0-6.75-3A7.859,7.859,0,0,0,3.25,3.313,8.9,8.9,0,0,0,.625,9.875,7.09,7.09,0,0,0,2.5,15.125a9.141,9.141,0,0,0,3.75,2.438l4.875,1.5a3.359,3.359,0,0,1,1.5.938,3.83,3.83,0,0,1,.938,2.813,3,3,0,0,1-1.875,2.813,5.321,5.321,0,0,1-3.937,0q-2.439-.747-2.812-4.687H0.063a11.252,11.252,0,0,0,2.625,7.125h0Z" transform="translate(-0.063 -0.844)"/>
</svg>
